<?xml version="1.0" encoding="iso-8859-1"?>
<!-- Uploaded to: SVG Repo, www.svgrepo.com, Generator: SVG Repo Mixer Tools -->
<!DOCTYPE svg PUBLIC "-//W3C//DTD SVG 1.1//EN" "http://www.w3.org/Graphics/SVG/1.1/DTD/svg11.dtd">
<svg fill="#000000" height="800px" width="800px" version="1.1" id="Capa_1" xmlns="http://www.w3.org/2000/svg" xmlns:xlink="http://www.w3.org/1999/xlink" 
	 viewBox="0 0 476.19 476.19" xml:space="preserve">
<g>
	<path d="M309.195,188.58L303.56,21.371c-0.189-5.763-2.582-11.148-6.729-15.153C292.696,2.208,287.236,0,281.458,0
		c-11.994,0-21.698,9.387-22.093,21.366l-5.614,166.592h-31.642v-3.733c0-11.304-9.196-20.5-20.5-20.5h-0.618
		c-11.304,0-20.5,9.196-20.5,20.5v3.733h-8.599c-11.197,0-20.307,9.11-20.307,20.308v247.617c0,11.198,9.11,20.308,20.307,20.308
		h132.404c11.197,0,20.307-9.11,20.307-20.308V208.265C324.604,198.759,318.029,190.78,309.195,188.58z M294.799,147.372h-26.673
		l0.216-6.419h26.241L294.799,147.372z M295.237,160.372l0.216,6.419h-27.982l0.216-6.419H295.237z M281.458,13
		c2.382,0,4.627,0.906,6.333,2.56c1.713,1.654,2.699,3.87,2.777,6.244l3.577,106.149H268.78l3.577-106.154
		C272.52,16.865,276.517,13,281.458,13z M267.033,179.791h28.858l0.275,8.167h-29.409L267.033,179.791z M193.492,184.225
		c0-4.136,3.364-7.5,7.5-7.5h0.618c4.135,0,7.5,3.364,7.5,7.5v3.733h-15.618V184.225z M311.604,455.882
		c0,4.029-3.277,7.308-7.307,7.308H171.893c-4.029,0-7.307-3.278-7.307-7.308V208.265c0-4.029,3.278-7.308,7.307-7.308h132.404
		c4.029,0,7.307,3.278,7.307,7.308V455.882z"/>
	<path d="M262.215,332.079c3.59,0,6.5-2.91,6.5-6.5s-2.91-6.5-6.5-6.5h-48.241c-3.59,0-6.5,2.91-6.5,6.5s2.91,6.5,6.5,6.5H262.215z"
		/>
	<path d="M181.228,347.686c0,3.59,2.91,6.5,6.5,6.5h100.735c3.59,0,6.5-2.91,6.5-6.5s-2.91-6.5-6.5-6.5H187.728
		C184.138,341.186,181.228,344.096,181.228,347.686z"/>
	<path d="M297.385,363.303h-118.58c-3.59,0-6.5,2.91-6.5,6.5s2.91,6.5,6.5,6.5h118.58c3.59,0,6.5-2.91,6.5-6.5
		S300.975,363.303,297.385,363.303z"/>
	<path d="M297.385,385.411h-118.58c-3.59,0-6.5,2.91-6.5,6.5s2.91,6.5,6.5,6.5h118.58c3.59,0,6.5-2.91,6.5-6.5
		S300.975,385.411,297.385,385.411z"/>
	<path d="M288.462,407.528H187.728c-3.59,0-6.5,2.91-6.5,6.5s2.91,6.5,6.5,6.5h100.735c3.59,0,6.5-2.91,6.5-6.5
		S292.052,407.528,288.462,407.528z"/>
	<path d="M262.226,429.635h-48.262c-3.59,0-6.5,2.91-6.5,6.5s2.91,6.5,6.5,6.5h48.262c3.59,0,6.5-2.91,6.5-6.5
		S265.816,429.635,262.226,429.635z"/>
	<path d="M182.393,275.865h111.405c3.59,0,6.5-2.91,6.5-6.5v-48.329c0-3.59-2.91-6.5-6.5-6.5H182.393c-3.59,0-6.5,2.91-6.5,6.5
		v48.329C175.893,272.955,178.803,275.865,182.393,275.865z M214.814,262.865h-6.415l17.546-35.329h6.414L214.814,262.865z
		 M246.874,227.536h26.313l-17.546,35.329h-26.312L246.874,227.536z M270.155,262.865l17.142-34.515v34.515H270.155z
		 M188.893,227.536h22.537l-17.546,35.329h-4.991V227.536z"/>
	<path d="M300.297,292.873c0-3.59-2.91-6.5-6.5-6.5h-18.908c-3.59,0-6.5,2.91-6.5,6.5s2.91,6.5,6.5,6.5h18.908
		C297.387,299.373,300.297,296.462,300.297,292.873z"/>
</g>
</svg>